<?xml version="1.0" encoding="UTF-8" standalone="no"?>
<!-- Created with Inkscape (http://www.inkscape.org/) -->

<svg
   xmlns:dc="http://purl.org/dc/elements/1.1/"
   xmlns:cc="http://creativecommons.org/ns#"
   xmlns:rdf="http://www.w3.org/1999/02/22-rdf-syntax-ns#"
   xmlns:svg="http://www.w3.org/2000/svg"
   xmlns="http://www.w3.org/2000/svg"
   xmlns:sodipodi="http://sodipodi.sourceforge.net/DTD/sodipodi-0.dtd"
   xmlns:inkscape="http://www.inkscape.org/namespaces/inkscape"
   width="300"
   height="200"
   id="svg2"
   version="1.1"
   inkscape:version="0.48.2 r9819"
   sodipodi:docname="plateau2.svg"
   inkscape:export-filename="/home/martin/Eurobot/ARM/plateau.png"
   inkscape:export-xdpi="96"
   inkscape:export-ydpi="96">
  <sodipodi:namedview
     id="base"
     pagecolor="#ffffff"
     bordercolor="#666666"
     borderopacity="1.0"
     inkscape:pageopacity="0.0"
     inkscape:pageshadow="2"
     inkscape:zoom="2"
     inkscape:cx="279.28406"
     inkscape:cy="100.94883"
     inkscape:document-units="px"
     inkscape:current-layer="layer1"
     showgrid="false"
     showguides="true"
     inkscape:guide-bbox="true"
     inkscape:window-width="1366"
     inkscape:window-height="744"
     inkscape:window-x="0"
     inkscape:window-y="24"
     inkscape:window-maximized="1"
     fit-margin-top="0"
     fit-margin-left="0"
     fit-margin-right="0"
     fit-margin-bottom="0" />
  <defs
     id="defs4">
    <marker
       inkscape:stockid="TriangleOutL"
       orient="auto"
       refY="0.0"
       refX="0.0"
       id="TriangleOutL"
       style="overflow:visible">
      <path
         id="path4375"
         d="M 5.77,0.0 L -2.88,5.0 L -2.88,-5.0 L 5.77,0.0 z "
         style="fill-rule:evenodd;stroke:#000000;stroke-width:1.0pt;marker-start:none"
         transform="scale(0.8)" />
    </marker>
    <marker
       inkscape:stockid="Arrow2Lend"
       orient="auto"
       refY="0.0"
       refX="0.0"
       id="Arrow2Lend"
       style="overflow:visible;">
      <path
         id="path4253"
         style="font-size:12.0;fill-rule:evenodd;stroke-width:0.62500000;stroke-linejoin:round;"
         d="M 8.7185878,4.0337352 L -2.2072895,0.016013256 L 8.7185884,-4.0017078 C 6.9730900,-1.6296469 6.9831476,1.6157441 8.7185878,4.0337352 z "
         transform="scale(1.1) rotate(180) translate(1,0)" />
    </marker>
    <marker
       style="overflow:visible"
       id="Arrow1Lend"
       refX="0"
       refY="0"
       orient="auto"
       inkscape:stockid="Arrow1Lend">
      <path
         transform="matrix(-0.8,0,0,-0.8,-10,0)"
         style="fill-rule:evenodd;stroke:#000000;stroke-width:1pt;marker-start:none"
         d="M 0,0 5,-5 -12.5,0 5,5 0,0 z"
         id="path4504"
         inkscape:connector-curvature="0" />
    </marker>
    <marker
       style="overflow:visible"
       id="Arrow1Lstart"
       refX="0"
       refY="0"
       orient="auto"
       inkscape:stockid="Arrow1Lstart">
      <path
         transform="matrix(0.8,0,0,0.8,10,0)"
         style="fill-rule:evenodd;stroke:#000000;stroke-width:1pt;marker-start:none"
         d="M 0,0 5,-5 -12.5,0 5,5 0,0 z"
         id="path4501"
         inkscape:connector-curvature="0" />
    </marker>
    <marker
       style="overflow:visible"
       id="Arrow1LendS"
       refX="0"
       refY="0"
       orient="auto"
       inkscape:stockid="Arrow1LendS">
      <path
         transform="matrix(-0.8,0,0,-0.8,-10,0)"
         style="fill:#ffffff;fill-rule:evenodd;stroke:#ffffff;stroke-width:1pt;marker-start:none"
         d="M 0,0 5,-5 -12.5,0 5,5 0,0 z"
         id="path5321"
         inkscape:connector-curvature="0" />
    </marker>
  </defs>
  <metadata
     id="metadata7">
    <rdf:RDF>
      <cc:Work
         rdf:about="">
        <dc:format>image/svg+xml</dc:format>
        <dc:type
           rdf:resource="http://purl.org/dc/dcmitype/StillImage" />
        <dc:title></dc:title>
      </cc:Work>
    </rdf:RDF>
  </metadata>
  <g
     transform="translate(0,-852.36218)"
     id="layer1"
     inkscape:groupmode="layer"
     inkscape:label="Calque 1">
    <rect
       transform="scale(-1,-1)"
       y="-1052.3622"
       x="-300"
       height="200"
       width="300"
       id="rect3020"
       style="fill:#3b83bd;fill-opacity:1;fill-rule:evenodd;stroke:none"
       inkscape:export-filename="/home/martin/Eurobot/ARM/pictures/plateau.png"
       inkscape:export-xdpi="96"
       inkscape:export-ydpi="96" />
    <path
       sodipodi:nodetypes="ccccc"
       inkscape:connector-curvature="0"
       id="path4139"
       d="m 300,852.36218 0,148.95132 -40.03906,0 L 266.6,852.36216 z"
       style="fill:#6c3b2a;fill-opacity:1;stroke:none"
       inkscape:export-filename="/home/martin/Eurobot/ARM/pictures/plateau.png"
       inkscape:export-xdpi="61"
       inkscape:export-ydpi="61" />
    <path
       style="fill:#6c3b2a;fill-opacity:1;stroke:none"
       d="m 0,852.36216 0,149.09064 40.0312,0 -6.63125,-149.09064 z"
       id="path4143"
       inkscape:connector-curvature="0"
       sodipodi:nodetypes="ccccc"
       inkscape:export-filename="/home/martin/Eurobot/ARM/pictures/plateau.png"
       inkscape:export-xdpi="61"
       inkscape:export-ydpi="61" />
    <path
       inkscape:connector-curvature="0"
       id="path3828-6"
       d="m 190,982.36218 c 16.56854,0 30,-13.43146 30,-30 0,-16.56854 -13.43146,-30 -30,-30 -4.76403,0 -9.27893,1.11806 -13.28125,3.09375 -7.91016,4.40413 -17.02277,6.90625 -26.71875,6.90625 -9.69598,0 -18.80859,-2.50212 -26.71875,-6.90625 -4.00232,-1.97569 -8.51722,-3.09375 -13.28125,-3.09375 -16.56854,0 -30,13.43146 -30,30 0,16.56854 13.43146,30 30,30 4.76403,0 9.27893,-1.11806 13.28125,-3.09375 7.91016,-4.40413 17.02277,-6.90625 26.71875,-6.90625 9.69598,0 18.80859,2.50212 26.71875,6.90625 4.00232,1.97569 8.51722,3.09375 13.28125,3.09375 z"
       style="fill:#fad201;fill-opacity:1;fill-rule:evenodd;stroke:none"
       inkscape:export-filename="/home/martin/Eurobot/ARM/pictures/plateau.png"
       inkscape:export-xdpi="61"
       inkscape:export-ydpi="61" />
    <path
       sodipodi:type="arc"
       style="fill:#57a63f;fill-opacity:0.94117647;fill-rule:evenodd;stroke:none"
       id="path3830-3"
       sodipodi:cx="149.75"
       sodipodi:cy="887.11218"
       sodipodi:rx="31.75"
       sodipodi:ry="31.75"
       d="m 181.5,887.11218 c 0,17.53504 -14.21496,31.75 -31.75,31.75 -17.53504,0 -31.75,-14.21496 -31.75,-31.75 0,-17.53504 14.21496,-31.75 31.75,-31.75 17.53504,0 31.75,14.21496 31.75,31.75 z"
       transform="matrix(-0.62992126,0,0,-0.62992126,284.33071,1511.173)"
       inkscape:export-filename="/home/martin/Eurobot/ARM/pictures/plateau.png"
       inkscape:export-xdpi="61"
       inkscape:export-ydpi="61" />
    <rect
       transform="scale(-1,-1)"
       style="fill:#924e7d;fill-opacity:1;fill-rule:evenodd;stroke:none"
       id="rect3808"
       width="50"
       height="50"
       x="-300"
       y="-1052.3622"
       inkscape:export-filename="/home/martin/Eurobot/ARM/pictures/plateau.png"
       inkscape:export-xdpi="61"
       inkscape:export-ydpi="61" />
    <rect
       transform="scale(-1,-1)"
       style="fill:#a52019;fill-opacity:1;fill-rule:evenodd;stroke:none"
       id="rect3808-9"
       width="50"
       height="50"
       x="-50"
       y="-1052.3622"
       inkscape:export-filename="/home/martin/Eurobot/ARM/pictures/plateau.png"
       inkscape:export-xdpi="61"
       inkscape:export-ydpi="61" />
    <path
       inkscape:connector-curvature="0"
       id="path3828"
       d="m 190,1052.3622 c 0,-22.0914 -17.90861,-40 -40,-40 -22.09139,0 -40,17.9086 -40,40 l 80,0 z"
       style="fill:#fad201;fill-opacity:1;fill-rule:evenodd;stroke:none"
       inkscape:export-filename="/home/martin/Eurobot/ARM/pictures/plateau.png"
       inkscape:export-xdpi="61"
       inkscape:export-ydpi="61" />
    <path
       inkscape:connector-curvature="0"
       id="path3830"
       d="m 180,1052.3622 c 0,-16.5685 -13.43146,-30 -30,-30 -16.56854,0 -30,13.4315 -30,30 l 60,0 z"
       style="fill:#57a63f;fill-opacity:0.94117647;fill-rule:evenodd;stroke:none"
       inkscape:export-filename="/home/martin/Eurobot/ARM/pictures/plateau.png"
       inkscape:export-xdpi="61"
       inkscape:export-ydpi="61" />
    <path
       sodipodi:type="arc"
       style="fill:#57a63f;fill-opacity:0.94117647;fill-rule:evenodd;stroke:none"
       id="path3830-3-3"
       sodipodi:cx="149.75"
       sodipodi:cy="887.11218"
       sodipodi:rx="31.75"
       sodipodi:ry="31.75"
       d="m 181.5,887.11218 c 0,17.53504 -14.21496,31.75 -31.75,31.75 -17.53504,0 -31.75,-14.21496 -31.75,-31.75 0,-17.53504 14.21496,-31.75 31.75,-31.75 17.53504,0 31.75,14.21496 31.75,31.75 z"
       transform="matrix(-0.62992126,0,0,-0.62992126,204.33071,1511.173)"
       inkscape:export-filename="/home/martin/Eurobot/ARM/pictures/plateau.png"
       inkscape:export-xdpi="61"
       inkscape:export-ydpi="61" />
    <path
       sodipodi:nodetypes="ccc"
       inkscape:connector-curvature="0"
       id="path3870"
       d="m 250,1007.3622 -15,0 0,-155.00004"
       style="fill:none;stroke:#000000;stroke-width:2;stroke-linecap:butt;stroke-linejoin:miter;stroke-miterlimit:4;stroke-opacity:1;stroke-dasharray:none"
       inkscape:export-filename="/home/martin/Eurobot/ARM/pictures/plateau.png"
       inkscape:export-xdpi="61"
       inkscape:export-ydpi="61" />
    <path
       sodipodi:nodetypes="ccc"
       inkscape:connector-curvature="0"
       id="path3870-2"
       d="m 50,1007.3622 15,0 0,-155.00004"
       style="fill:none;stroke:#000000;stroke-width:2;stroke-linecap:butt;stroke-linejoin:miter;stroke-miterlimit:4;stroke-opacity:1;stroke-dasharray:none"
       inkscape:export-filename="/home/martin/Eurobot/ARM/pictures/plateau.png"
       inkscape:export-xdpi="61"
       inkscape:export-ydpi="61" />
    <path
       sodipodi:type="arc"
       style="fill:#57a63f;fill-opacity:0.94117647;fill-rule:evenodd;stroke:none"
       id="path3830-3-3-3"
       sodipodi:cx="149.75"
       sodipodi:cy="887.11218"
       sodipodi:rx="31.75"
       sodipodi:ry="31.75"
       d="m 181.5,887.11218 c 0,17.53504 -14.21496,31.75 -31.75,31.75 -17.53504,0 -31.75,-14.21496 -31.75,-31.75 0,-17.53504 14.21496,-31.75 31.75,-31.75 17.53504,0 31.75,14.21496 31.75,31.75 z"
       transform="matrix(-0.23622047,0,0,-0.23622047,185.37402,1161.9163)"
       inkscape:export-filename="/home/martin/Eurobot/ARM/pictures/plateau.png"
       inkscape:export-xdpi="61"
       inkscape:export-ydpi="61" />
    <rect
       transform="scale(-1,-1)"
       ry="0"
       y="-1002.3622"
       x="-300"
       height="1.8"
       width="40"
       id="rect3995"
       style="fill:#6c3b2a;fill-opacity:1;stroke:none"
       inkscape:export-filename="/home/martin/Eurobot/ARM/pictures/plateau.png"
       inkscape:export-xdpi="61"
       inkscape:export-ydpi="61" />
    <rect
       transform="scale(-1,-1)"
       ry="0"
       y="-1002.3622"
       x="-40"
       height="1.8"
       width="40"
       id="rect3995-3"
       style="fill:#6c3b2a;fill-opacity:1;stroke:none"
       inkscape:export-filename="/home/martin/Eurobot/ARM/pictures/plateau.png"
       inkscape:export-xdpi="61"
       inkscape:export-ydpi="61" />
    <rect
       inkscape:transform-center-y="37.459871"
       transform="matrix(-0.04625884,0.99892949,-0.99892949,-0.04625884,0,0)"
       inkscape:transform-center-x="1.7347172"
       ry="0"
       y="-306.64389"
       x="839.11713"
       height="1.8"
       width="75"
       id="rect3995-2"
       style="fill:#6c3b2a;fill-opacity:1;stroke:none"
       inkscape:export-filename="/home/martin/Eurobot/ARM/pictures/plateau.png"
       inkscape:export-xdpi="61"
       inkscape:export-ydpi="61" />
    <rect
       transform="scale(-1,-1)"
       y="-854.56213"
       x="-190.5"
       height="2.2"
       width="2.2"
       id="rect4033"
       style="fill:#a52019;fill-opacity:1;fill-rule:evenodd;stroke:none" />
    <rect
       transform="scale(-1,-1)"
       y="-854.56213"
       x="-236.10001"
       height="2.2"
       width="2.2"
       id="rect4033-4"
       style="fill:#924e7d;fill-opacity:1;fill-rule:evenodd;stroke:none" />
    <rect
       transform="scale(1,-1)"
       style="fill:#924e7d;fill-opacity:1;fill-rule:evenodd;stroke:none"
       id="rect4062"
       width="2.2"
       height="2.2"
       x="109.5"
       y="-854.56213" />
    <rect
       transform="scale(1,-1)"
       style="fill:#a52019;fill-opacity:1;fill-rule:evenodd;stroke:none"
       id="rect4064"
       width="2.2"
       height="2.2"
       x="63.899994"
       y="-854.56213" />
    <rect
       transform="scale(-1,-1)"
       y="-964.86218"
       x="-202.5"
       height="25"
       width="25"
       id="rect4119"
       style="fill:#6c3b2a;fill-opacity:1;fill-rule:evenodd;stroke:none"
       inkscape:export-filename="/home/martin/Eurobot/ARM/pictures/plateau.png"
       inkscape:export-xdpi="61"
       inkscape:export-ydpi="61" />
    <rect
       transform="scale(-1,-1)"
       y="-964.86218"
       x="-122.5"
       height="25"
       width="25"
       id="rect4119-3"
       style="fill:#6c3b2a;fill-opacity:1;fill-rule:evenodd;stroke:none"
       inkscape:export-filename="/home/martin/Eurobot/ARM/pictures/plateau.png"
       inkscape:export-xdpi="61"
       inkscape:export-ydpi="61" />
    <rect
       style="fill:#6c3b2a;fill-opacity:1;stroke:none"
       id="rect4147"
       width="75"
       height="1.8"
       x="852.99469"
       y="-6.9650445"
       ry="0"
       inkscape:transform-center-x="-1.7347082"
       transform="matrix(0.04625884,0.99892949,0.99892949,-0.04625884,0,0)"
       inkscape:transform-center-y="37.459782"
       inkscape:export-filename="/home/martin/Eurobot/ARM/pictures/plateau.png"
       inkscape:export-xdpi="61"
       inkscape:export-ydpi="61" />
    <rect
       transform="scale(-1,-1)"
       y="-913.36212"
       x="-300"
       height="61"
       width="32.5"
       id="rect3868"
       style="opacity:0.5;fill:#ffffff;fill-opacity:1;fill-rule:evenodd;stroke:none"
       inkscape:export-filename="/home/martin/Eurobot/ARM/pictures/plateau.png"
       inkscape:export-xdpi="61"
       inkscape:export-ydpi="61" />
    <rect
       transform="scale(-1,-1)"
       y="-913.36224"
       x="-32.5"
       height="61"
       width="32.5"
       id="rect3868-7"
       style="opacity:0.5;fill:#ffffff;fill-opacity:1;fill-rule:evenodd;stroke:none"
       inkscape:export-filename="/home/martin/Eurobot/ARM/pictures/plateau.png"
       inkscape:export-xdpi="61"
       inkscape:export-ydpi="61" />
    <rect
       transform="scale(-1,-1)"
       y="-1052.3622"
       x="-170"
       height="3"
       width="40"
       id="rect4494"
       style="fill:#3b83bd;fill-opacity:1;fill-rule:evenodd;stroke:none"
       inkscape:export-filename="/home/martin/Eurobot/ARM/pictures/plateau.png"
       inkscape:export-xdpi="61"
       inkscape:export-ydpi="61" />
    <path
       style="fill:#000000;fill-opacity:1;fill-rule:evenodd;stroke:none"
       d="m 319.95694,852.81857 0,40 40,0 0,-40 -20,0 1.375,2.375 12.65625,21.875 1.375,2.375 -2.75,0 -7.28125,0 0,10.75 -10.75,0 0,-10.75 -7.28125,0 -2.75,0 1.375,-2.375 12.65625,-21.875 1.375,-2.375 -20,0 z"
       id="rect3044"
       inkscape:connector-curvature="0"
       inkscape:export-filename="/home/martin/Eurobot/minigui/robot.png"
       inkscape:export-xdpi="96"
       inkscape:export-ydpi="96" />
    <g
       id="g4871"
       transform="translate(5.567,0)" />
    <rect
       style="fill:#000000;fill-opacity:1;fill-rule:evenodd;stroke:none"
       id="rect3049"
       width="30"
       height="30"
       x="-972.36218"
       y="320"
       transform="matrix(0,-1,1,0,0,0)" />
    <rect
       style="fill:#000000;fill-opacity:1;fill-rule:evenodd;stroke:none"
       id="rect3049-1"
       width="22"
       height="16"
       x="908.36218"
       y="-345"
       transform="matrix(0,1,-1,0,0,0)" />
    <rect
       style="fill:#ff0000;fill-opacity:1;fill-rule:evenodd;stroke:none"
       id="rect3049-1-8"
       width="24"
       height="9"
       x="-969.36218"
       y="341"
       transform="matrix(0,-1,1,0,0,0)" />
    <path
       style="fill:#0000ff;stroke:none"
       d="m 341,969.36218 2,0 -2,-2 0,2 z"
       id="path3087"
       inkscape:connector-curvature="0" />
    <path
       style="fill:#0000ff;stroke:none"
       d="m 341,945.36218 2,0 -2,2 0,-2 z"
       id="path3087-4"
       inkscape:connector-curvature="0" />
    <path
       style="fill:#0000ff;stroke:none"
       d="m 320,942.36218 4,0 -4,4 0,-4 z"
       id="path3087-4-0"
       inkscape:connector-curvature="0" />
    <path
       style="fill:#0000ff;stroke:none"
       d="m 320,972.36218 4,0 -4,-4 0,4 z"
       id="path3087-4-0-6"
       inkscape:connector-curvature="0" />
    <path
       style="fill:#000000;fill-opacity:1;fill-rule:evenodd;stroke:none"
       d="m 363.71751,968.30063 4,4 24.5,0 c 0.82843,0 1.5,-0.67157 1.5,-1.5 0,-0.82843 -0.67157,-1.5 -1.5,-1.5 l -5.5,0 -2,-2 0,-20 2,-2 5.5,0 c 0.82843,0 1.5,-0.67157 1.5,-1.5 0,-0.82843 -0.67157,-1.5 -1.5,-1.5 l -24.5,0 -4,4 0,22 z"
       id="rect3049-3"
       inkscape:connector-curvature="0"
       inkscape:export-filename="/home/martin/Eurobot/minigui/gros.png"
       inkscape:export-xdpi="96"
       inkscape:export-ydpi="96" />
    <path
       style="fill:#0000ff;stroke:none"
       d="m 345,930.36218 -4,0 4,-7 0,7 z"
       id="path3087-4-0-2"
       inkscape:connector-curvature="0" />
    <path
       inkscape:connector-curvature="0"
       id="path4039-2"
       d="m 329,908.36218 4,0 -4,7 0,-7 z"
       style="fill:#0000ff;stroke:none" />
    <path
       inkscape:connector-curvature="0"
       id="path4039-5"
       d="m 329,930.36218 4,0 -4,-7 0,7 z"
       style="fill:#0000ff;stroke:none" />
    <path
       inkscape:connector-curvature="0"
       id="path4039"
       d="m 345,908.36218 -4,0 4,7 0,-7 z"
       style="fill:#0000ff;stroke:none" />
    <rect
       style="fill:#ff0000;fill-opacity:1;fill-rule:evenodd;stroke:none"
       id="rect3049-1-3-8"
       width="2"
       height="6"
       x="928.36218"
       y="-347"
       transform="matrix(0,1,-1,0,0,0)" />
    <rect
       style="fill:#ff0000;fill-opacity:1;fill-rule:evenodd;stroke:none"
       id="rect3049-1-3"
       width="2"
       height="6"
       x="908.36218"
       y="-347"
       transform="matrix(0,1,-1,0,0,0)" />
    <path
       style="fill:#000000;fill-opacity:1;fill-rule:evenodd;stroke:none"
       d="M 366 57.75 L 362 64.75 L 362 72.75 L 366 79.75 L 374 79.75 L 380 79.75 L 380 77.75 L 375.15625 77.75 L 378 72.75 L 378 64.75 L 375.15625 59.75 L 380 59.75 L 380 57.75 L 374 57.75 L 366 57.75 z "
       transform="translate(0,852.36218)"
       id="rect3049-1-0"
       inkscape:export-filename="/home/martin/Eurobot/minigui/petit.png"
       inkscape:export-xdpi="96"
       inkscape:export-ydpi="96" />
  </g>
</svg>
